<?xml version="1.0" standalone="no"?>
<!DOCTYPE svg PUBLIC "-//W3C//DTD SVG 20010904//EN"
 "http://www.w3.org/TR/2001/REC-SVG-20010904/DTD/svg10.dtd">
<svg version="1.0" xmlns="http://www.w3.org/2000/svg"
 width="700.000000pt" height="700.000000pt" viewBox="0 0 700.000000 700.000000"
 preserveAspectRatio="xMidYMid meet">
<metadata>
Created by potrace 1.14, written by Peter Selinger 2001-2017
</metadata>
<g transform="translate(0.000000,700.000000) scale(0.100000,-0.100000)"
fill="#000000" stroke="none">
<path d="M881 5830 c-9 -7 -9 -1443 0 -1450 6 -4 2297 -5 2322 -1 9 1 9 1451
0 1452 -35 4 -2317 3 -2322 -1z"/>
<path d="M3502 5105 l3 -730 1310 0 1310 0 0 728 c0 641 -2 727 -15 728 -8 0
-599 2 -1313 2 l-1297 2 2 -730z"/>
<path d="M599 4082 c-14 -2 -15 -90 -15 -730 l1 -727 873 0 c769 0 872 2 873
15 1 8 2 334 3 723 0 458 -3 711 -9 715 -9 6 -1696 10 -1726 4z"/>
<path d="M2631 4080 c-4 -3 -6 -331 -6 -730 l0 -725 872 0 c480 0 874 2 874 5
1 3 2 330 3 728 1 476 -2 722 -9 723 -40 4 -1728 3 -1734 -1z"/>
<path d="M4671 4070 c-5 -11 -7 -1385 -2 -1435 1 -7 292 -10 864 -9 474 1 867
2 873 3 15 2 15 1451 0 1452 -6 0 -397 2 -869 2 -755 2 -860 0 -866 -13z"/>
<path d="M887 2330 c-10 -4 -12 -164 -12 -730 l0 -725 1310 0 1310 0 3 730 2
730 -1300 0 c-716 0 -1306 -2 -1313 -5z"/>
<path d="M3807 2332 c-16 -3 -17 -58 -17 -727 0 -569 3 -724 13 -727 6 -2 532
-4 1167 -4 l1155 1 0 729 0 730 -1151 0 c-633 1 -1158 0 -1167 -2z"/>
</g>
</svg>
